<svg width="1021" height="227" xmlns="http://www.w3.org/2000/svg" xmlns:xlink="http://www.w3.org/1999/xlink" overflow="hidden"><defs><clipPath id="clip0"><rect x="0" y="0" width="1021" height="227"/></clipPath></defs><g clip-path="url(#clip0)"><rect x="0" y="0" width="1021" height="227.056" fill="#FFFFFF"/><rect x="33.5" y="96.5236" width="188" height="53.013" stroke="#787878" stroke-width="1.33399" stroke-miterlimit="8" fill="#A5A5A5"/><text font-family="Times New Roman,Times New Roman_MSFontService,sans-serif" font-weight="400" font-size="24" transform="matrix(1 0 0 1.00024 97.6849 131)">James</text><rect x="408.5" y="59.5146" width="187" height="131.032" stroke="#787878" stroke-width="1.33399" stroke-miterlimit="8" fill="#A5A5A5"/><text font-family="Times New Roman,Times New Roman_MSFontService,sans-serif" font-weight="400" font-size="24" transform="matrix(1 0 0 1.00024 449.294 104)">ML</text><text font-family="Times New Roman,Times New Roman_MSFontService,sans-serif" font-weight="400" font-size="24" transform="matrix(1 0 0 1.00024 485.311 104)">-</text><text font-family="Times New Roman,Times New Roman_MSFontService,sans-serif" font-weight="400" font-size="24" transform="matrix(1 0 0 1.00024 493.315 104)">model</text><text font-family="Times New Roman,Times New Roman_MSFontService,sans-serif" font-weight="400" font-size="24" transform="matrix(1 0 0 1.00024 455.297 133)">Classifier</text><rect x="787.5" y="98.5241" width="187" height="53.013" stroke="#787878" stroke-width="1.33399" stroke-miterlimit="8" fill="#A5A5A5"/><text font-family="Times New Roman,Times New Roman_MSFontService,sans-serif" font-weight="400" font-size="24" transform="matrix(1 0 0 1.00024 843.854 133)">English</text><path d="M595.5 124.197 780.907 124.197 780.907 124.864 595.5 124.864ZM779.572 120.528 787.576 124.531 779.572 128.534Z" fill="#7F7F7F"/><path d="M221.504 122.196 401.977 124.209 401.97 124.877 221.496 122.864ZM400.684 120.525 408.643 124.617 400.595 128.531Z" fill="#7F7F7F"/><text font-family="Calibri,Calibri_MSFontService,sans-serif" font-weight="400" font-size="24" transform="matrix(1 0 0 1.00024 39.1694 178)">Name as sequence</text><text font-family="Calibri,Calibri_MSFontService,sans-serif" font-weight="400" font-size="24" transform="matrix(1 0 0 1.00024 39.1694 207)">of characters</text><text font-family="Calibri,Calibri_MSFontService,sans-serif" font-weight="400" font-size="24" transform="matrix(1 0 0 1.00024 793.894 182)">Language</text></g></svg>