<svg width="1070" height="304" xmlns="http://www.w3.org/2000/svg" xmlns:xlink="http://www.w3.org/1999/xlink" overflow="hidden"><defs><clipPath id="clip0"><rect x="0" y="0" width="1070" height="304"/></clipPath></defs><g clip-path="url(#clip0)"><rect x="0" y="0" width="1070" height="303.572" fill="#FFFFFF"/><rect x="37.5" y="65.4079" width="187" height="51.9269" stroke="#787878" stroke-width="1.33375" stroke-miterlimit="8" fill="#A5A5A5"/><text font-family="Times New Roman,Times New Roman_MSFontService,sans-serif" font-weight="400" font-size="24" transform="matrix(1 0 0 0.998593 84.8854 99)">Wiki API</text><rect x="37.5" y="138.305" width="187" height="51.9268" stroke="#787878" stroke-width="1.33375" stroke-miterlimit="8" fill="#A5A5A5"/><text font-family="Times New Roman,Times New Roman_MSFontService,sans-serif" font-weight="400" font-size="24" transform="matrix(1 0 0 0.998593 108.083 172)">PDF</text><rect x="37.5" y="217.194" width="187" height="51.9269" stroke="#787878" stroke-width="1.33375" stroke-miterlimit="8" fill="#A5A5A5"/><text font-family="Times New Roman,Times New Roman_MSFontService,sans-serif" font-weight="400" font-size="24" transform="matrix(1 0 0 0.998593 121.087 251)">...</text><rect x="350.5" y="64.4093" width="177" height="198.72" stroke="#787878" stroke-width="1.33375" stroke-miterlimit="8" fill="#A5A5A5"/><text font-family="Times New Roman,Times New Roman_MSFontService,sans-serif" font-weight="400" font-size="24" transform="matrix(1 0 0 0.998593 375.166 111)">NER</text><text font-family="Times New Roman,Times New Roman_MSFontService,sans-serif" font-weight="400" font-size="24" transform="matrix(1 0 0 0.998593 375.165 153)">POS tagging</text><text font-family="Times New Roman,Times New Roman_MSFontService,sans-serif" font-weight="400" font-size="24" transform="matrix(1 0 0 0.998593 369.385 202)">Dependency</text><text font-family="Times New Roman,Times New Roman_MSFontService,sans-serif" font-weight="400" font-size="24" transform="matrix(1 0 0 0.998593 369.385 231)">Parser</text><path d="M224.572 91.0461 359.977 120.775 359.834 121.426 224.428 91.6965ZM359.462 116.912 366.418 122.531 357.743 124.717Z" fill="#7F7F7F"/><path d="M0.00367651-0.332948 135.063 1.15842 135.056 1.82432-0.00367651 0.332948ZM133.772-2.51871 141.719 1.5649 133.684 5.47204Z" fill="#7F7F7F" transform="matrix(1.00141 0 0 -1 224.5 163.836)"/><path d="M0.119878-0.31064 133.717 51.2456 133.477 51.8669-0.119878 0.31064ZM133.793 47.3491 139.81 53.9539 130.916 54.8045Z" fill="#7F7F7F" transform="matrix(1.00141 0 0 -1 226.5 243.187)"/><text font-family="Times New Roman,Times New Roman_MSFontService,sans-serif" font-weight="400" font-size="24" transform="matrix(1 0 0 0.998593 46.1371 46)">Text sources</text><text font-family="Times New Roman,Times New Roman_MSFontService,sans-serif" font-weight="400" font-size="24" transform="matrix(1 0 0 0.998593 350.783 41)">NLP Library</text><rect x="603.5" y="64.4093" width="423" height="204.712" stroke="#787878" stroke-width="1.33375" stroke-miterlimit="8" fill="#FFFFFF"/><rect x="819.5" y="109.346" width="198" height="79.8874" stroke="#787878" stroke-width="1.33375" stroke-miterlimit="8" fill="#A5A5A5"/><text font-family="Times New Roman,Times New Roman_MSFontService,sans-serif" font-weight="400" font-size="24" transform="matrix(1 0 0 0.998593 858.964 143)">Questioning</text><text font-family="Times New Roman,Times New Roman_MSFontService,sans-serif" font-weight="400" font-size="24" transform="matrix(1 0 0 0.998593 883.638 172)">Engine</text><rect x="612.5" y="107.349" width="198" height="83.8818" stroke="#787878" stroke-width="1.33375" stroke-miterlimit="8" fill="#A5A5A5"/><text font-family="Times New Roman,Times New Roman_MSFontService,sans-serif" font-weight="400" font-size="24" transform="matrix(1 0 0 0.998593 630.983 157)">Knowledge base</text><text font-family="Calibri,Calibri_MSFontService,sans-serif" font-weight="400" font-size="24" transform="matrix(1 0 0 0.998593 612.253 83)">Knowledge Graph</text><path d="M8.27493e-07-0.332968 77.7378-0.332775 77.7378 0.333161-8.27493e-07 0.332968ZM76.4059-3.99543 84.3971 0.000209744 76.4059 3.99581Z" fill="#7F7F7F" transform="matrix(1.00141 0 0 -1 527.5 164.269)"/></g></svg>