<svg version="1.1"
     baseProfile="full"
     width="216" height="170"
     xmlns="http://www.w3.org/2000/svg">

<path class="logoMain" fill="#df4807" d="M141 136h20V0h-20v136zm44.107-91.93c-3.756-.186-8.431 0-13.107.555v18.732c17.6 0 24.018 2.609 24.018 19.109V136H216V79.968c0-20.685-11.642-35.157-30.893-35.899zm-137.73.991C25.993 46.173 16.5 60.435 16.5 83.127v45.76c0 13.336-2.674 19.08-16.499 19.358v18.513c1.658.28 4.33.28 5.714.186 21.477-1.296 30.878-15.652 30.878-38.066v-45.76c0-13.428 2.49-19.078 16.408-19.356V45.154c-1.569-.186-4.24-.186-5.623-.093zm62.002 0C88.43 46.171 79 60.494 79 83.045V136h19.769V83.036c0-13.307 2.629-19.037 16.231-19.314V45.154c-1.633-.186-4.26-.186-5.621-.093z"></path>
</svg>